<?xml version="1.0" encoding="UTF-8" standalone="no"?>
<svg
   width="14.635"
   height="14.635"
   viewBox="0 0 11.890937 11.890937"
   fill="none"
   version="1.1"
   id="svg3235"
   sodipodi:docname="copylot-icon.svg"
   inkscape:version="1.2.2 (b0a8486541, 2022-12-01)"
   xmlns:inkscape="http://www.inkscape.org/namespaces/inkscape"
   xmlns:sodipodi="http://sodipodi.sourceforge.net/DTD/sodipodi-0.dtd"
   xmlns="http://www.w3.org/2000/svg"
   xmlns:svg="http://www.w3.org/2000/svg">
  <sodipodi:namedview
     id="namedview12"
     pagecolor="#ffffff"
     bordercolor="#000000"
     borderopacity="0.25"
     inkscape:showpageshadow="2"
     inkscape:pageopacity="0.0"
     inkscape:pagecheckerboard="0"
     inkscape:deskcolor="#d1d1d1"
     showgrid="false"
     inkscape:zoom="57.920093"
     inkscape:cx="6.7334147"
     inkscape:cy="7.2772674"
     inkscape:window-width="1920"
     inkscape:window-height="1043"
     inkscape:window-x="1920"
     inkscape:window-y="0"
     inkscape:window-maximized="1"
     inkscape:current-layer="svg3235" />
  <defs
     id="defs3239" />
  <rect
     x="0.499998"
     y="0.50000012"
     width="9"
     height="9"
     rx="1"
     fill="#ffffff"
     id="rect3" />
  <rect
     x="2.8909366"
     y="2.8115315"
     width="8"
     height="8"
     rx="0.5"
     fill="#ffffff"
     id="rect5" />
  <g
     transform="matrix(0.5,0,0,0.5,2.8909366,2.8491487)"
     fill="currentColor"
     id="g10">
    <path
       d="M 7.998,15.035 C 3.436,15.035 0.125,12.121 0,11.286 V 9.338 C 0.085,8.71 0.677,7.652 1.588,7.273 1.601,7.203 1.612,7.13 1.624,7.055 1.653,6.872 1.684,6.671 1.75,6.443 1.549,5.935 1.496,5.359 1.496,4.787 1.496,3.917 1.624,3.018 2.189,2.303 2.768,1.57 3.683,1.179 4.913,1.042 6.119,0.908 7.175,1.076 7.857,1.807 7.907,1.86 7.953,1.915 7.996,1.972 8.04,1.915 8.09,1.86 8.139,1.807 8.821,1.076 9.877,0.908 11.083,1.042 c 1.23,0.137 2.145,0.528 2.724,1.261 0.566,0.715 0.693,1.614 0.693,2.484 0,0.572 -0.053,1.148 -0.254,1.656 0.066,0.228 0.098,0.429 0.126,0.612 0.012,0.076 0.024,0.148 0.037,0.218 0.924,0.385 1.522,1.471 1.591,2.095 v 1.872 c 0,0.766 -3.351,3.795 -8.002,3.795 z m 0,-1.485 c 2.28,0 4.584,-1.11 5.002,-1.433 V 7.862 L 12.977,7.746 C 12.487,7.956 11.902,8.037 11.25,8.037 10.104,8.037 9.191,7.71 8.54,7.046 A 3.222,3.222 0 0 1 8,6.303 3.24,3.24 0 0 1 7.456,7.046 C 6.806,7.71 5.893,8.037 4.746,8.037 4.094,8.037 3.51,7.956 3.019,7.746 L 2.996,7.862 v 4.255 C 3.415,12.44 5.718,13.55 7.998,13.55 Z M 6.762,2.83 C 6.569,2.624 6.125,2.417 5.08,2.533 4.061,2.646 3.601,2.937 3.367,3.233 3.12,3.545 2.998,4.022 2.998,4.787 c 0,0.793 0.129,1.171 0.308,1.371 0.162,0.181 0.519,0.379 1.442,0.379 0.853,0 1.339,-0.235 1.638,-0.54 C 6.701,5.675 6.913,5.17 7.003,4.444 7.12,3.509 6.966,3.049 6.762,2.83 Z M 10.917,2.533 C 9.873,2.417 9.429,2.624 9.236,2.83 9.032,3.049 8.877,3.509 8.994,4.444 9.085,5.17 9.297,5.675 9.612,5.997 c 0.299,0.305 0.784,0.54 1.638,0.54 0.922,0 1.28,-0.198 1.442,-0.379 C 12.871,5.958 13,5.58 13,4.787 13,4.022 12.877,3.545 12.63,3.233 12.397,2.937 11.937,2.646 10.917,2.533 Z"
       id="path6" />
    <path
       d="M 6.25,9.037 A 0.75,0.75 0 0 1 7,9.787 v 1.501 a 0.75,0.75 0 0 1 -1.5,0 V 9.787 a 0.75,0.75 0 0 1 0.75,-0.75 z m 4.25,0.75 v 1.501 a 0.75,0.75 0 0 1 -1.5,0 V 9.787 a 0.75,0.75 0 0 1 1.5,0 z"
       id="path8" />
  </g>
  <path
     fill-rule="evenodd"
     clip-rule="evenodd"
     d="M -2e-6,8.5000001 C -2e-6,9.3284301 0.671568,10 1.499998,10 H 1.8909366 V 9.0000001 H 1.499998 c -0.27614,0 -0.5,-0.22386 -0.5,-0.5 V 1.5 c 0,-0.27614 0.22386,-0.50000001 0.5,-0.50000001 h 7 c 0.27614,0 0.4999996,0.22386001 0.4999996,0.50000001 v 0.3115315 h -5.609061 c -0.82843,0 -1.5,0.67157 -1.5,1.5 v 6.9999995 c 0,0.8284 0.67157,1.5 1.5,1.5 h 7.0000004 c 0.8284,0 1.5,-0.6716 1.5,-1.5 V 3.3115315 c 0,-0.82843 -0.6716,-1.5 -1.5,-1.5 H 9.9999976 V 1.5 c 0,-0.82843001 -0.67157,-1.5 -1.4999996,-1.5 h -7 c -0.82843,0 -1.5,0.67156999 -1.5,1.5 z M 2.8909366,3.3115315 c 0,-0.27614 0.22386,-0.5 0.5,-0.5 h 7.0000004 c 0.2761,0 0.5,0.22386 0.5,0.5 v 6.9999995 c 0,0.2761 -0.2239,0.5 -0.5,0.5 H 3.3909366 c -0.27614,0 -0.5,-0.2239 -0.5,-0.5 z"
     fill="currentColor"
     id="path3227"
     style="stroke-width:0.3055;stroke-dasharray:none" />
</svg>
